<svg width="32" height="32" viewBox="0 0 32 32" fill="none" xmlns="http://www.w3.org/2000/svg">
  <rect width="32" height="32" rx="16" fill="#0047AB" />
  <path d="M16 6C14.8954 6 14 6.89543 14 8C14 9.10457 14.8954 10 16 10C17.1046 10 18 9.10457 18 8C18 6.89543 17.1046 6 16 6Z" fill="#D4AF37" />
  <path d="M22 8C20.8954 8 20 8.89543 20 10C20 11.1046 20.8954 12 22 12C23.1046 12 24 11.1046 24 10C24 8.89543 23.1046 8 22 8Z" fill="#D4AF37" />
  <path d="M22 16C20.8954 16 20 16.8954 20 18C20 19.1046 20.8954 20 22 20C23.1046 20 24 19.1046 24 18C24 16.8954 23.1046 16 22 16Z" fill="#D4AF37" />
  <path d="M16 22C14.8954 22 14 22.8954 14 24C14 25.1046 14.8954 26 16 26C17.1046 26 18 25.1046 18 24C18 22.8954 17.1046 22 16 22Z" fill="#D4AF37" />
  <path d="M10 16C8.89543 16 8 16.8954 8 18C8 19.1046 8.89543 20 10 20C11.1046 20 12 19.1046 12 18C12 16.8954 11.1046 16 10 16Z" fill="#D4AF37" />
  <path d="M10 8C8.89543 8 8 8.89543 8 10C8 11.1046 8.89543 12 10 12C11.1046 12 12 11.1046 12 10C12 8.89543 11.1046 8 10 8Z" fill="#D4AF37" />
  <path d="M14 8L10 10M10 10L8 16M8 16L10 24M10 24L16 26M16 26L22 24M22 24L24 16M24 16L22 10M22 10L16 8M16 8L10 10M10 10L16 14M16 14L22 10M22 10L24 16M24 16L22 24M22 24L16 22M16 22L10 24M10 24L8 16M8 16L10 10" stroke="#D4AF37" strokeWidth="1.5" />
</svg>